<svg width="22" height="20" viewBox="0 0 22 20" fill="none" xmlns="http://www.w3.org/2000/svg">
<path d="M1.75949 4.01596H21L17.962 14.1425H4.79747L1.75949 4.01596ZM1.75949 4.01596L1 1.48431M8.84 9.07925H10.8653M10.8653 9.07925H12.8906M10.8653 9.07925V7.05393M10.8653 9.07925V11.1046M9.86076 17.6868C9.86076 18.0897 9.70072 18.4761 9.41586 18.7609C9.13099 19.0458 8.74463 19.2058 8.34177 19.2058C7.93891 19.2058 7.55255 19.0458 7.26769 18.7609C6.98282 18.4761 6.82278 18.0897 6.82278 17.6868M15.9367 17.6868C15.9367 18.0897 15.7767 18.4761 15.4918 18.7609C15.2069 19.0458 14.8206 19.2058 14.4177 19.2058C14.0149 19.2058 13.6285 19.0458 13.3436 18.7609C13.0588 18.4761 12.8987 18.0897 12.8987 17.6868" stroke="url(#paint0_linear_1_52)" stroke-width="1.5" stroke-linecap="round" stroke-linejoin="round"/>
<defs>
<linearGradient id="paint0_linear_1_52" x1="1.53447" y1="19.2058" x2="22.6166" y2="16.8008" gradientUnits="userSpaceOnUse">
<stop offset="0.107416" stop-color="#DC519C"/>
<stop offset="0.566118" stop-color="#AE4EF5"/>
<stop offset="1" stop-color="#6D7AFB"/>
</linearGradient>
</defs>
</svg>
