<svg width="34" height="31" viewBox="0 0 34 31" fill="none" xmlns="http://www.w3.org/2000/svg">
<path d="M15.9248 4.82997L16.6837 5.71411L17.4425 4.82997C19.0416 2.96685 21.4982 1.77814 24.0406 1.77814C28.525 1.77814 32.0324 5.27167 32.0324 9.76996C32.0324 12.5229 30.7998 15.1067 28.4264 18.0104C26.042 20.9275 22.612 24.044 18.3825 27.8793L18.3811 27.8806L16.6837 29.4258L14.9863 27.8806L14.9848 27.8793C10.7554 24.044 7.3253 20.9275 4.94091 18.0104C2.56751 15.1067 1.3349 12.5229 1.3349 9.76996C1.3349 5.27167 4.8424 1.77814 9.32673 1.77814C11.8691 1.77814 14.3258 2.96685 15.9248 4.82997Z" fill="url(#paint0_linear_2_152)" stroke="white" stroke-width="2"/>
<defs>
<linearGradient id="paint0_linear_2_152" x1="1.20869" y1="30.7781" x2="35.7052" y2="26.9775" gradientUnits="userSpaceOnUse">
<stop offset="0.107416" stop-color="#DC519C"/>
<stop offset="0.566118" stop-color="#AE4EF5"/>
<stop offset="1" stop-color="#6D7AFB"/>
</linearGradient>
</defs>
</svg>
