<svg width="15" height="15" viewBox="0 0 15 15" fill="none" xmlns="http://www.w3.org/2000/svg">
<path fill-rule="evenodd" clip-rule="evenodd" d="M7.22697 0.649445L13.9241 7.33244C14.0515 7.46603 14.1246 7.64236 14.129 7.82695C14.1295 7.91992 14.1117 8.01209 14.0765 8.09816C14.0414 8.18423 13.9896 8.26252 13.9241 8.32853L7.91222 14.3404C7.84621 14.4059 7.76792 14.4577 7.68185 14.4928C7.59578 14.528 7.50362 14.5458 7.41064 14.5453C7.2236 14.5427 7.04444 14.4695 6.90907 14.3404L0.204881 7.62914C0.0757897 7.49376 0.002614 7.31461 1.18078e-05 7.12757V2.88888C-0.000525723 2.79591 0.0172944 2.70374 0.0524505 2.61767C0.0876066 2.5316 0.139407 2.45332 0.204881 2.38731L1.971 0.628252C2.03701 0.562777 2.1153 0.510977 2.20137 0.475821C2.28744 0.440665 2.3796 0.422845 2.47258 0.423382H6.71126C6.80813 0.423694 6.90389 0.443923 6.99261 0.482813C7.08133 0.521702 7.1611 0.578421 7.22697 0.649445ZM1.41291 6.84499L7.41064 12.8498L12.4194 7.83401L6.41455 1.83628H2.75516L1.41291 3.17853V6.84499Z" fill="url(#paint0_linear_2_103)"/>
<path d="M3.53225 3.24917C3.39253 3.24917 3.25594 3.2906 3.13977 3.36823C3.02359 3.44585 2.93304 3.55619 2.87958 3.68527C2.82611 3.81436 2.81212 3.9564 2.83937 4.09344C2.86663 4.23048 2.93392 4.35635 3.03271 4.45515C3.13151 4.55395 3.25739 4.62123 3.39443 4.64849C3.53146 4.67575 3.67351 4.66176 3.80259 4.60829C3.93168 4.55482 4.04201 4.46427 4.11964 4.3481C4.19726 4.23192 4.2387 4.09534 4.2387 3.95562C4.2387 3.76826 4.16427 3.58857 4.03178 3.45608C3.8993 3.3236 3.71961 3.24917 3.53225 3.24917Z" fill="url(#paint1_linear_2_103)"/>
<path fill-rule="evenodd" clip-rule="evenodd" d="M7.41064 12.8498L1.41291 6.84499V3.17853L2.75516 1.83628H6.41455L12.4194 7.83401L7.41064 12.8498ZM3.13977 3.36823C3.25594 3.2906 3.39253 3.24917 3.53225 3.24917C3.71961 3.24917 3.8993 3.3236 4.03178 3.45608C4.16427 3.58857 4.2387 3.76826 4.2387 3.95562C4.2387 4.09534 4.19726 4.23192 4.11964 4.3481C4.04201 4.46427 3.93168 4.55482 3.80259 4.60829C3.67351 4.66176 3.53146 4.67575 3.39443 4.64849C3.25739 4.62123 3.13151 4.55395 3.03271 4.45515C2.93392 4.35635 2.86663 4.23048 2.83937 4.09344C2.81212 3.9564 2.82611 3.81436 2.87958 3.68527C2.93304 3.55619 3.02359 3.44585 3.13977 3.36823Z" fill="url(#paint2_linear_2_103)"/>
<defs>
<linearGradient id="paint0_linear_2_103" x1="0.377575" y1="14.5453" x2="15.3121" y2="13.0349" gradientUnits="userSpaceOnUse">
<stop offset="0.107416" stop-color="#DC519C"/>
<stop offset="0.566118" stop-color="#AE4EF5"/>
<stop offset="1" stop-color="#6D7AFB"/>
</linearGradient>
<linearGradient id="paint1_linear_2_103" x1="0.377575" y1="14.5453" x2="15.3121" y2="13.0349" gradientUnits="userSpaceOnUse">
<stop offset="0.107416" stop-color="#DC519C"/>
<stop offset="0.566118" stop-color="#AE4EF5"/>
<stop offset="1" stop-color="#6D7AFB"/>
</linearGradient>
<linearGradient id="paint2_linear_2_103" x1="0.377575" y1="14.5453" x2="15.3121" y2="13.0349" gradientUnits="userSpaceOnUse">
<stop offset="0.107416" stop-color="#DC519C"/>
<stop offset="0.566118" stop-color="#AE4EF5"/>
<stop offset="1" stop-color="#6D7AFB"/>
</linearGradient>
</defs>
</svg>
