<svg width="21" height="19" viewBox="0 0 21 19" fill="none" xmlns="http://www.w3.org/2000/svg">
<path d="M13.866 0.455017L17.077 6.01702H20.5V8.01702H19.333L18.576 17.1C18.5552 17.3499 18.4413 17.5829 18.2568 17.7527C18.0723 17.9225 17.8308 18.0169 17.58 18.017H3.42C3.16925 18.0169 2.9277 17.9225 2.74322 17.7527C2.55875 17.5829 2.44481 17.3499 2.424 17.1L1.666 8.01702H0.5V6.01702H3.922L7.134 0.455017L8.866 1.45502L6.232 6.01702H14.767L12.134 1.45502L13.866 0.455017ZM17.326 8.01702H3.673L4.34 16.017H16.659L17.326 8.01702ZM11.5 10.017V14.017H9.5V10.017H11.5ZM7.5 10.017V14.017H5.5V10.017H7.5ZM15.5 10.017V14.017H13.5V10.017H15.5Z" fill="url(#paint0_linear_1_23)"/>
<defs>
<linearGradient id="paint0_linear_1_23" x1="1.03447" y1="18.017" x2="22.1116" y2="15.5907" gradientUnits="userSpaceOnUse">
<stop offset="0.107416" stop-color="#DC519C"/>
<stop offset="0.566118" stop-color="#AE4EF5"/>
<stop offset="1" stop-color="#6D7AFB"/>
</linearGradient>
</defs>
</svg>
