<svg width="20" height="25" viewBox="0 0 20 25" fill="none" xmlns="http://www.w3.org/2000/svg">
<path d="M16.3511 15.6066C16.1154 16.9233 15.4819 18.1362 14.536 19.082C13.59 20.0277 12.377 20.661 11.0602 20.8964C11.0102 20.9044 10.9597 20.9086 10.9091 20.9089C10.6811 20.9088 10.4614 20.8231 10.2936 20.6686C10.1258 20.5142 10.0222 20.3023 10.0034 20.0751C9.98448 19.8478 10.0517 19.6218 10.1917 19.4418C10.3317 19.2617 10.5342 19.1409 10.7591 19.1032C12.642 18.7862 14.2398 17.1885 14.5591 15.3021C14.5995 15.0643 14.7327 14.8523 14.9294 14.7127C15.1261 14.5731 15.3702 14.5174 15.608 14.5578C15.8457 14.5982 16.0578 14.7313 16.1973 14.9281C16.3369 15.1248 16.3927 15.3688 16.3523 15.6066H16.3511ZM20 14.5453C20 17.1974 18.9464 19.741 17.0711 21.6163C15.1957 23.4917 12.6522 24.5453 10 24.5453C7.34784 24.5453 4.8043 23.4917 2.92893 21.6163C1.05357 19.741 0 17.1974 0 14.5453C0 11.3725 1.25 8.12823 3.71136 4.90323C3.78928 4.80111 3.88794 4.71666 4.00086 4.65545C4.11378 4.59423 4.23839 4.55764 4.36648 4.54809C4.49457 4.53853 4.62323 4.55623 4.74399 4.60001C4.86474 4.64379 4.97484 4.71266 5.06705 4.80209L7.80795 7.46232L10.308 0.597543C10.3579 0.460627 10.44 0.337726 10.5474 0.239201C10.6548 0.140676 10.7843 0.0694153 10.925 0.0314264C11.0657 -0.00656244 11.2135 -0.0101659 11.3559 0.02092C11.4983 0.0520058 11.6311 0.11687 11.7432 0.210043C14.2284 2.27254 20 7.78959 20 14.5453ZM18.1818 14.5453C18.1818 9.30777 14.1148 4.78163 11.567 2.46232L9.03636 9.40209C8.98442 9.54462 8.89764 9.6719 8.78392 9.7723C8.67021 9.87271 8.53317 9.94307 8.3853 9.97696C8.23743 10.0108 8.08343 10.0072 7.93733 9.96633C7.79124 9.92546 7.65769 9.84869 7.54886 9.743L4.55227 6.83618C2.7375 9.4555 1.81818 12.0453 1.81818 14.5453C1.81818 16.7152 2.68019 18.7963 4.21458 20.3307C5.74897 21.8651 7.83005 22.7271 10 22.7271C12.17 22.7271 14.251 21.8651 15.7854 20.3307C17.3198 18.7963 18.1818 16.7152 18.1818 14.5453Z" fill="url(#paint0_linear_2_125)"/>
<defs>
<linearGradient id="paint0_linear_2_125" x1="0.53447" y1="24.5453" x2="21.747" y2="22.7981" gradientUnits="userSpaceOnUse">
<stop offset="0.107416" stop-color="#DC519C"/>
<stop offset="0.566118" stop-color="#AE4EF5"/>
<stop offset="1" stop-color="#6D7AFB"/>
</linearGradient>
</defs>
</svg>
